<svg xmlns="http://www.w3.org/2000/svg">
  <defs>
    <style><![CDATA[
      .sprite { display: none; }
      .sprite:target { display: inline; }
    ]]></style>
  </defs>

<g class="sprite" id="logo" viewBox="0 0 34 32">
<path d="M.824 26.715c.575.765 1.43 1.405 2.473 1.851 1.044.446 2.238.682 3.454.683h7.054v.657c0 .522.292 1.023.81 1.393.517.369 1.22.576 1.952.576s1.435-.207 1.952-.576c.518-.37.81-.871.81-1.393v-.657h7.053c1.217-.001 2.411-.237 3.455-.683 1.044-.447 1.898-1.087 2.473-1.852.585-.774.865-1.647.812-2.525-.054-.879-.44-1.73-1.117-2.466l-2.071-2.245c.316-.232.586-.494.8-.78.421-.555.623-1.18.585-1.811-.038-.631-.316-1.242-.802-1.77l-3.186-3.46a3.41 3.41 0 0 0 .388-.427c.423-.55.63-1.17.603-1.796-.028-.626-.292-1.235-.763-1.764a2.752 2.752 0 0 0-.221-.214l-6.994-5.9c-.044-.035-.095-.07-.134-.103-.973-.68-2.28-1.062-3.643-1.062s-2.67.381-3.643 1.062a2.043 2.043 0 0 0-.13.1L5.77 7.447a2.62 2.62 0 0 0-.219.212c-.475.528-.742 1.137-.773 1.764-.03.627.176 1.248.598 1.799.12.158.258.31.412.452l-3.171 3.44c-.488.526-.766 1.137-.806 1.768-.04.63.161 1.257.581 1.813.214.285.484.547.8.779l-2.07 2.245c-.678.736-1.063 1.59-1.116 2.469-.052.88.23 1.753.818 2.527Zm4.918-2.831 3.923-4.256c.251-.272.403-.584.444-.908.04-.325-.034-.651-.214-.95-.18-.3-.46-.562-.818-.765a3.375 3.375 0 0 0-1.229-.397l4.117-4.467c.213-.236.353-.501.411-.779.059-.277.033-.56-.074-.83a1.887 1.887 0 0 0-.547-.736 2.854 2.854 0 0 0-.923-.51l5.735-4.814 5.707 4.814a2.832 2.832 0 0 0-.92.512 1.869 1.869 0 0 0-.54.738c-.105.27-.127.553-.066.83.061.277.205.542.421.776l4.118 4.466c-.449.058-.871.194-1.228.397a2.216 2.216 0 0 0-.819.765c-.18.299-.253.625-.213.95.04.324.192.636.443.909l3.925 4.255a.76.76 0 0 1 .219.475.717.717 0 0 1-.162.486c-.099.141-.251.26-.44.341a1.554 1.554 0 0 1-.626.124H6.751a1.554 1.554 0 0 1-.626-.123c-.188-.083-.34-.201-.44-.342a.717.717 0 0 1-.161-.486.759.759 0 0 1 .218-.475Z"/>
<path d="M15.646 22.682c1.526 0 2.762-.882 2.762-1.97s-1.236-1.97-2.762-1.97c-1.525 0-2.76.882-2.76 1.97s1.235 1.97 2.76 1.97ZM17.487 16.115c1.525 0 2.762-.882 2.762-1.97s-1.237-1.97-2.762-1.97-2.761.882-2.761 1.97 1.236 1.97 2.761 1.97Z"/>
</g>

<g class="sprite" id="search" viewBox="0 0 26 26">
<path d="m25.683 24.15-6.467-6.466a10.85 10.85 0 1 0-1.532 1.532l6.467 6.467a1.084 1.084 0 0 0 1.532-1.532Zm-14.85-4.65a8.667 8.667 0 1 1 8.667-8.667 8.676 8.676 0 0 1-8.667 8.667Z
"/></g>

<g class="sprite" id="cart" viewBox="0 0 28 28">
<path d="M26.498 4.756A3.492 3.492 0 0 0 23.813 3.5H4.949L4.9 3.09A3.5 3.5 0 0 0 1.426 0h-.26a1.167 1.167 0 1 0 0 2.333h.26a1.167 1.167 0 0 1 1.158 1.03l1.605 13.65a5.833 5.833 0 0 0 5.794 5.154h12.184a1.167 1.167 0 1 0 0-2.334H9.983a3.5 3.5 0 0 1-3.29-2.333H20.6a5.833 5.833 0 0 0 5.741-4.799l.916-5.08a3.492 3.492 0 0 0-.759-2.865Zm-1.531 2.452-.917 5.08a3.5 3.5 0 0 1-3.45 2.879H6.322L5.224 5.833h18.588a1.167 1.167 0 0 1 1.155 1.375ZM8.167 28a2.333 2.333 0 1 0 0-4.667 2.333 2.333 0 0 0 0 4.667ZM19.833 28a2.333 2.333 0 1 0 0-4.667 2.333 2.333 0 0 0 0 4.667Z"/>
</g>

<g class="sprite" id="user" viewBox="0 0 21 27">
<path d="M21 27h-2.333v-5.655A3.256 3.256 0 0 0 17.655 19a3.525 3.525 0 0 0-2.438-.972H5.783c-.915 0-1.791.35-2.438.972a3.256 3.256 0 0 0-1.012 2.344V27H0v-5.655a5.458 5.458 0 0 1 1.696-3.929 5.91 5.91 0 0 1 4.087-1.63h9.434a5.91 5.91 0 0 1 4.087 1.63A5.458 5.458 0 0 1 21 21.345V27ZM10.5 13.543a7.203 7.203 0 0 1-3.889-1.134 6.793 6.793 0 0 1-2.578-3.02 6.486 6.486 0 0 1-.398-3.887A6.652 6.652 0 0 1 5.55 2.057 7.092 7.092 0 0 1 9.134.216a7.263 7.263 0 0 1 4.045.383 6.948 6.948 0 0 1 3.141 2.478 6.544 6.544 0 0 1 1.18 3.738 6.605 6.605 0 0 1-2.052 4.755 7.153 7.153 0 0 1-4.948 1.973Zm0-11.214c-.923 0-1.825.263-2.593.756A4.529 4.529 0 0 0 6.19 5.098a4.324 4.324 0 0 0-.266 2.592c.18.87.625 1.67 1.277 2.297a4.728 4.728 0 0 0 2.39 1.227 4.842 4.842 0 0 0 2.696-.255 4.632 4.632 0 0 0 2.094-1.652 4.363 4.363 0 0 0 .787-2.492A4.4 4.4 0 0 0 13.8 3.643a4.764 4.764 0 0 0-3.3-1.314Z"/>
</g>

<g class="sprite" id="arrow" viewBox="0 0 39 16">
<path fill="white" d="M38.707 8.707a1 1 0 0 0 0-1.414L32.343.929a1 1 0 1 0-1.414 1.414L36.586 8l-5.657 5.657a1 1 0 0 0 1.414 1.414l6.364-6.364ZM0 9h38V7H0v2Z"/>
</g>





</svg>